<svg width="543" height="648" viewBox="0 0 543 648" fill="none" xmlns="http://www.w3.org/2000/svg">
<path d="M249 0C295.392 0 333 37.6081 333 84C333 122.052 307.698 154.194 273 164.521V270H339C352.255 270 363 280.745 363 294C363 307.255 352.255 318 339 318H273V568.826C329.432 563.296 382.506 538.39 422.948 497.948C459.421 461.476 483.256 414.73 491.641 364.512L469.733 375.466C457.878 381.393 443.462 376.589 437.534 364.733C431.607 352.878 436.411 338.462 448.267 332.534L508.267 302.534C515.706 298.814 524.542 299.211 531.617 303.584C538.693 307.957 543 315.682 543 324C543 401.974 512.025 476.754 456.89 531.89C407.439 581.34 342.186 611.354 273 617.019V624C273 637.255 262.255 648 249 648C235.745 648 225 637.255 225 624V545H250V520H225V440H250V390H225V319H250V269H225V244H250V194H225V164.521C199.255 156.858 178.682 137.186 169.78 112H194V62H167.91C177.578 26.2787 210.22 0 249 0ZM196 617H175V596H196V617ZM220 617H199V596H220V617ZM171 592H150V571H171V592ZM196 592H175V571H196V592ZM220 592H199V571H220V592ZM71 567H50V546H71V567ZM121 567H100V546H121V567ZM146 567H125V546H146V567ZM171 567H150V546H171V567ZM220 543H199V522H220V543ZM96 542H75V521H96V542ZM121 542H100V521H121V542ZM21 517H0V496H21V517ZM71 517H50V496H71V517ZM96 517H75V496H96V517ZM46 492H25V471H46V492ZM21 467H0V446H21V467ZM121 467H100V446H121V467ZM21 442H0V421H21V442ZM46 442H25V421H46V442ZM96 442H75V421H96V442ZM221 437H200V416H221V437ZM46 417H25V396H46V417ZM71 417H50V396H71V417ZM199 412H178V391H199V412ZM168 320H147V299H168V320ZM196 320H175V299H196V320ZM146 295H125V274H146V295ZM196 295H175V274H196V295ZM221 295H200V274H221V295ZM196 243H175V222H196V243ZM221 243H200V222H221V243ZM221 218H200V197H221V218ZM249 48C229.118 48 213 64.1177 213 84C213 103.882 229.118 120 249 120C268.882 120 285 103.882 285 84C285 64.1177 268.882 48 249 48ZM165 109H144V88H165V109ZM165 84H144V63H165V84Z" fill="white"/>
</svg>
