<svg width="1293" height="1492" viewBox="0 0 1293 1492" fill="none" xmlns="http://www.w3.org/2000/svg">
<path d="M680 1492H600V1412H680V1492ZM480 1392H400V1312H480V1392ZM580 1392H500V1312H580V1392ZM680 1392H600V1312H680V1392ZM1234.92 685.223C1247.31 679.023 1262.04 679.686 1273.83 686.974C1285.63 694.262 1292.8 707.137 1292.8 721C1292.8 896.308 1223.16 1064.44 1099.2 1188.4C991.42 1296.18 850.249 1362.89 700 1378.47V1297.98C828.974 1282.74 949.872 1224.59 1042.63 1131.83C1135.77 1038.7 1194.01 917.197 1208.97 787.639L1132.69 825.777C1112.93 835.657 1088.91 827.648 1079.03 807.889C1069.15 788.13 1077.16 764.102 1096.92 754.223L1234.92 685.223ZM380 1292H300V1212H380V1292ZM480 1292H400V1212H480V1292ZM680 1292H600V1212H680V1292ZM280 1192H200V1112H280V1192ZM380 1192H300V1112H380V1192ZM580 1192H500V1112H580V1192ZM180 1092H100V1012H180V1092ZM680 1092H600V1012H680V1092ZM80 992H0V912H80V992ZM380 992H300V912H380V992ZM580 992H500V912H580V992ZM180 892H100V812H180V892ZM680 892H600V812H680V892ZM680 792H600V712H680V792ZM380 692H300V612H380V692ZM580 692H500V612H580V692ZM680 692H600V612H680V692ZM838.804 612C860.895 612 878.804 629.909 878.804 652C878.804 674.091 860.895 692 838.804 692H700V612H838.804ZM680 592H600V512H680V592ZM680 492H600V412H680V492ZM680 392H600V312H680V392ZM700 0C791.29 18.5308 860 99.2407 860 195.999C860 292.757 791.289 373.466 700 391.997V309.17C746.608 292.696 780 248.248 780 195.999C780 143.75 746.608 99.3006 700 82.8271V0ZM580 312H500V232H580V312ZM580 161H500V81H580V161ZM680 81H600V1H680V81Z" fill="white"/>
</svg>
